<svg height="32" viewBox="0 0 32 32" width="32" xmlns="http://www.w3.org/2000/svg"><path d="m11.553 12.292c0 .212-.172.383-.383.383s-.383-.172-.383-.383c0-.212.172-.383.383-.383s.383.172.383.383zm.18-1.826c-1.245 0-2.255 1.009-2.255 2.255s1.01 2.255 2.255 2.255 2.255-1.009 2.255-2.255-1.01-2.255-2.255-2.255zm.056 3.675c-.753 0-1.364-.611-1.364-1.364s.611-1.364 1.364-1.364 1.364.611 1.364 1.364-.611 1.364-1.364 1.364zm9.707-1.465c.212 0 .383-.171.383-.383s-.172-.383-.383-.383c-.212 0-.383.172-.383.383s.172.383.383.383zm.699 2.39c1.245 0 2.255-1.01 2.255-2.255s-1.009-2.255-2.255-2.255c-1.245 0-2.255 1.009-2.255 2.255s1.01 2.255 2.255 2.255zm-.079-3.63c.753 0 1.364.611 1.364 1.364s-.611 1.364-1.364 1.364-1.364-.611-1.364-1.364.611-1.364 1.364-1.364zm5.214 4.337c0-3.092-1.24-5.893-3.247-7.937-.373-1.138-.33-2.711.143-3.427.165-.25.341-.492.53-.764-1.679-.286-3.107.195-4.064 1.393-.116.146-.224.232-.337.274-1.341-.559-2.812-.869-4.355-.869-1.549 0-3.025.312-4.37.875-.119-.04-.232-.127-.354-.28-.956-1.197-2.384-1.679-4.064-1.393.189.272.365.514.53.764.48.727.517 2.336.127 3.477-1.979 2.04-3.199 4.82-3.199 7.887 0 1.443.271 2.823.763 4.092.123.348.236.7.351 1.051.105.321.206.639.299.958.274.94.442 1.911.469 2.89.008.268.003.536-.004.803-.003.092-.006.184-.009.276l2.295-2.1c.416.384.982.73 1.664 1.025-.691.483-1.144 1.284-1.144 2.191 0 .774.331 1.469.857 1.957-.051-.17-.079-.35-.079-.537 0-1.028.833-1.86 1.86-1.86s1.86.833 1.86 1.86c0 .22-.04.43-.11.626.584-.49.956-1.225.956-2.047 0-.45-.112-.873-.308-1.245.614.064 1.253.098 1.911.098.448 0 .887-.016 1.316-.046-.18.359-.281.764-.281 1.193 0 .774.331 1.469.857 1.957-.051-.17-.079-.35-.079-.537 0-1.028.833-1.86 1.86-1.86s1.86.833 1.86 1.86c0 .22-.04.43-.11.626.584-.49.956-1.225.956-2.047 0-.818-.368-1.55-.948-2.04.706-.27 1.307-.592 1.771-.952l1.984 1.815c-.004-.092-.007-.184-.009-.276-.007-.267-.012-.535-.004-.803.028-.979.196-1.95.469-2.89.093-.319.194-.638.299-.959.121-.369.239-.741.37-1.107h-.001c.464-1.237.72-2.576.72-3.975zm-21.343 3.379-.425-1.272.564.519.875-.309zm.218.91.564.519.875-.309-1.014 1.062zm1.386-1.894.524.56.895-.243-1.091.983zm-.42 5.381-.425-1.272.564.519.875-.309zm1.404-1.809-.425-1.272.564.519.875-.309zm.961-3.183.524.56.895-.243-1.091.983zm6.498 1.861c-.225-.335-.413-.712-.588-1.052-.201-.389-.403-.778-.606-1.166-.388-.742-.964-1.497-1.157-2.335-.772.628-1.756 1.004-2.829 1.004-2.478 0-4.487-2.009-4.487-4.487s2.009-4.487 4.487-4.487c.659 0 1.284.143 1.848.398.255.108.499.239.73.391 1.164.806 1.926 2.15 1.926 3.672 0 .219-.017.433-.048.643.229-.072.472-.111.724-.111.291 0 .569.054.828.149-.039-.237-.061-.479-.061-.726 0-.388.052-.764.145-1.123.005-.018.01-.035.015-.053.025-.09.052-.18.082-.268.021-.062.043-.123.066-.183.01-.025.019-.05.029-.074.668-1.639 2.277-2.794 4.155-2.794 2.478 0 4.487 2.009 4.487 4.487s-2.009 4.487-4.487 4.487c-.932 0-1.798-.284-2.515-.771-.129-.087-.253-.182-.372-.281-.094.447-.321.827-.547 1.252-.308.581-.613 1.164-.917 1.747l-.908 1.68zm8.433-2.098-.328 1.3-1.091-.983.895.242.524-.56zm-3.364.706.895.243.524-.56-.328 1.3zm2.381 2.866-1.014-1.062.875.309.564-.519zm1.403 1.809-1.014-1.062.875.309.564-.519zm.541-2.215-1.014-1.062.875.309.564-.519zm.643-2.181-1.014-1.062.875.309.564-.519zm-10.043-5.968c-1.161 0-2.102.941-2.102 2.103 0 .927.654 1.729 1.064 2.514.176.338.352.676.527 1.014.152.295.316.623.512.914l.789-1.461c.265-.507.529-1.014.797-1.519.256-.482.516-.897.516-1.463 0-1.161-.941-2.103-2.103-2.103z" fill="#444"/></svg>