<svg xmlns="http://www.w3.org/2000/svg" width="80" height="80" fill="rgb(0%,0%,0%)" xmlns:v="https://vecta.io/nano"><path d="M64.164 28.238l-2.414-.762.375-1.652c1.828-8.891.633-16.051-3.449-18.41-3.906-2.262-10.312.094-16.773 5.734a48.02 48.02 0 0 0-1.867 1.719 34.09 34.09 0 0 0-1.25-1.152c-6.773-6.027-13.562-8.566-17.637-6.199-3.906 2.266-5.07 9-3.422 17.426.164.832.348 1.664.555 2.488a50.62 50.62 0 0 0-2.777.875C7.57 31.078 2.5 35.426 2.5 39.938c0 4.656 5.445 9.328 13.715 12.164.672.227 1.348.438 2.031.633-.223.887-.418 1.781-.59 2.684-1.562 8.281-.344 14.855 3.555 17.109 4.027 2.324 10.781-.066 17.367-5.832.52-.453 1.039-.937 1.563-1.445.656.637 1.332 1.254 2.031 1.855 6.375 5.496 12.668 7.715 16.563 5.457 4.023-2.336 5.328-9.398 3.633-17.988-.133-.656-.281-1.328-.453-2.012l1.398-.434c8.594-2.855 14.191-7.473 14.191-12.187-.004-4.531-5.238-8.91-13.34-11.703zM44.008 15.57c5.539-4.832 10.711-6.738 13.07-5.375 2.512 1.453 3.488 7.305 1.91 14.98a39.36 39.36 0 0 1-.336 1.496 76.39 76.39 0 0 0-10.027-1.586 75.08 75.08 0 0 0-6.34-7.93 38.87 38.87 0 0 1 1.723-1.586zM24.645 43.789a94.68 94.68 0 0 0 2.129 3.891 90.79 90.79 0 0 0 2.352 3.859 68.77 68.77 0 0 1-6.91-1.113c.66-2.145 1.477-4.371 2.43-6.637zm0-7.551a70.22 70.22 0 0 1-2.383-6.504 71.71 71.71 0 0 1 6.801-1.172 96.71 96.71 0 0 0-2.301 3.789 97.39 97.39 0 0 0-2.121 3.887zm1.703 3.777c.988-2.062 2.051-4.082 3.191-6.062s2.352-3.91 3.637-5.801a91.15 91.15 0 0 1 6.828-.258 89.43 89.43 0 0 1 6.844.262c1.27 1.883 2.477 3.809 3.613 5.781a109.94 109.94 0 0 1 3.234 6.031 98.27 98.27 0 0 1-3.227 6.082 108.28 108.28 0 0 1-3.594 5.82c-2.227.156-4.531.242-6.875.242a105.61 105.61 0 0 1-6.789-.215 90.07 90.07 0 0 1-3.668-5.828 90.62 90.62 0 0 1-3.199-6.055zm26.895 7.641c.754-1.309 1.48-2.637 2.176-3.984a68.94 68.94 0 0 1 2.52 6.613 67.23 67.23 0 0 1-7 1.195 111.47 111.47 0 0 0 2.305-3.824zm2.145-11.418c-.691-1.316-1.41-2.617-2.16-3.906a92.42 92.42 0 0 0-2.277-3.758c2.391.301 4.688.707 6.84 1.199a69.4 69.4 0 0 1-2.402 6.465zM40.035 19.449a68.36 68.36 0 0 1 4.414 5.34 93.16 93.16 0 0 0-8.863 0c1.457-1.926 2.949-3.715 4.449-5.34zm-17.277-9.16c2.512-1.453 8.059.625 13.906 5.824a39.12 39.12 0 0 1 1.125 1.043 76.71 76.71 0 0 0-6.383 7.922 78.63 78.63 0 0 0-10.008 1.563 46.01 46.01 0 0 1-.516-2.312c-1.414-7.227-.48-12.672 1.875-14.039zm-3.656 39.352a36.84 36.84 0 0 1-1.852-.578c-3.656-1.25-6.676-2.883-8.75-4.656-1.855-1.594-2.797-3.184-2.797-4.469 0-2.738 4.07-6.227 10.863-8.594.852-.297 1.711-.57 2.582-.816a76.28 76.28 0 0 0 3.656 9.492 78.59 78.59 0 0 0-3.703 9.621zm17.363 14.637c-2.91 2.551-5.824 4.359-8.395 5.27-2.312.816-4.148.84-5.262.199-2.363-1.367-3.348-6.648-2.008-13.73a53.07 53.07 0 0 1 .547-2.5 74.78 74.78 0 0 0 10.109 1.469 78.31 78.31 0 0 0 6.438 7.969 32.59 32.59 0 0 1-1.43 1.324zm3.66-3.629a70.96 70.96 0 0 1-4.512-5.41A115.35 115.35 0 0 0 40 55.32a101.98 101.98 0 0 0 4.531-.098 68.31 68.31 0 0 1-4.406 5.426zm19.457 4.469c-.449 2.414-1.348 4.023-2.457 4.664-2.363 1.375-7.418-.41-12.867-5.109a56.42 56.42 0 0 1-1.887-1.719 75.69 75.69 0 0 0 6.285-8 75.46 75.46 0 0 0 10.156-1.57 39.91 39.91 0 0 1 .406 1.816c.75 3.797.859 7.23.363 9.918zm2.719-16.039a43.77 43.77 0 0 1-1.262.398 75.21 75.21 0 0 0-3.797-9.523 74.95 74.95 0 0 0 3.648-9.383 46.99 46.99 0 0 1 2.23.703c6.941 2.395 11.176 5.938 11.176 8.664 0 2.906-4.574 6.676-11.996 9.141zM40 46.648a6.72 6.72 0 0 0 4.781-11.461c-1.922-1.926-4.812-2.504-7.324-1.469a6.72 6.72 0 0 0-4.152 6.211c-.008 3.707 2.988 6.715 6.695 6.719zm0 0"/></svg>