<svg xmlns="http://www.w3.org/2000/svg" width="80" height="80" xmlns:v="https://vecta.io/nano"><path d="M2.668 2.668V0A2.68 2.68 0 0 0 .703.859a2.69 2.69 0 0 0-.695 2.027zm74.664 0l2.66.219c.063-.742-.191-1.477-.695-2.027A2.68 2.68 0 0 0 77.332 0zm-5.332 64l.844 2.527a2.66 2.66 0 0 0 1.813-2.309zM40 77.332l-.844 2.531c.547.184 1.141.184 1.688 0zM8 66.668l-2.656.219a2.66 2.66 0 0 0 1.813 2.309zm16-48V16h-2.668v2.668zm0 16h-2.668v2.664H24zm32 0h2.668V32H56zm0 16l.844 2.527 1.824-.605v-1.922zM40 56l-.844 2.531.844.281.844-.281zm-16-5.332h-2.668v1.922l1.824.605zM2.668 5.332h74.664V0H2.668zm72.008-2.887l-5.332 64 5.313.441 5.336-64zm-3.52 61.691l-32 10.668 1.688 5.059 32-10.668zM40.844 74.805l-32-10.668-1.687 5.059 32 10.668zm-30.187-8.359l-5.332-64-5.316.441 5.336 64zM58.668 16H24v5.332h34.668zm-37.336 2.668v16h5.336v-16zM24 37.332h32V32H24zm29.332-2.664v16h5.336v-16zm1.824 13.469l-16 5.332 1.688 5.063 16-5.336zm-14.312 5.332l-16-5.332-1.687 5.059 16 5.336zm-14.176-2.801v-8h-5.336v8zm0 0" fill="rgb(0%,0%,0%)"/></svg>