<svg xmlns="http://www.w3.org/2000/svg" width="18" height="18" fill="none" xmlns:v="https://vecta.io/nano"><path d="M6 2.25C3.932 2.25 2.25 3.932 2.25 6v6c0 2.068 1.682 3.75 3.75 3.75h6c2.068 0 3.75-1.682 3.75-3.75V6c0-2.068-1.682-3.75-3.75-3.75H6zm0 1.5h6c1.241 0 2.25 1.01 2.25 2.25v6c0 1.241-1.009 2.25-2.25 2.25H6c-1.24 0-2.25-1.009-2.25-2.25V6c0-1.24 1.01-2.25 2.25-2.25zm6.75.75a.75.75 0 0 0-.75.75.75.75 0 0 0 .75.75.75.75 0 0 0 .75-.75.75.75 0 0 0-.75-.75zM9 5.25C6.932 5.25 5.25 6.932 5.25 9S6.932 12.75 9 12.75s3.75-1.682 3.75-3.75S11.068 5.25 9 5.25zm0 1.5c1.241 0 2.25 1.01 2.25 2.25S10.241 11.25 9 11.25 6.75 10.241 6.75 9 7.76 6.75 9 6.75z" fill="#fff"/></svg>