<svg xmlns="http://www.w3.org/2000/svg" width="18" height="18" fill="none" xmlns:v="https://vecta.io/nano"><path d="M14.143 2.25H3.857A1.61 1.61 0 0 0 2.25 3.857v10.286a1.61 1.61 0 0 0 1.607 1.607h10.286a1.61 1.61 0 0 0 1.607-1.607V3.857a1.61 1.61 0 0 0-1.607-1.607zM6.429 7.393V13.5H4.5V7.393h1.929zM4.5 5.615c0-.45.386-.794.964-.794s.942.344.964.794c0 .45-.36.813-.964.813-.579 0-.964-.363-.964-.813zm9 7.885h-1.929v-3.214c0-.643-.322-1.286-1.125-1.299h-.026c-.778 0-1.099.662-1.099 1.299V13.5H7.393V7.393h1.929v.823s.62-.823 1.868-.823c1.276 0 2.311.878 2.311 2.655V13.5z" fill="#fff"/></svg>