<svg xmlns="http://www.w3.org/2000/svg" width="120" height="32" fill="none" xmlns:v="https://vecta.io/nano"><g fill="#000"><path d="M106.56 27.901a3.01 3.01 0 0 1-.07.662 2.92 2.92 0 0 1-.64 1.262 2.83 2.83 0 0 1-.934.644c-.352.15-.73.227-1.112.226-.296-10.121-.287-17.557.031-19.037a2.69 2.69 0 0 1 2.707-2.233l-.026 2.799a5.14 5.14 0 0 1 1.406-1.907 4.94 4.94 0 0 1 1.21-.744 5.63 5.63 0 0 1 2.412-.435 6.1 6.1 0 0 1 3.718 1.084c.983.73 1.738 1.725 2.176 2.869.477 1.231.717 2.541.706 3.861a8.4 8.4 0 0 1-.671 3.483 6.93 6.93 0 0 1-1.772 2.425c-.71.615-1.53 1.092-2.416 1.406a7.89 7.89 0 0 1-2.612.461 7.3 7.3 0 0 1-2.35-.305c-.588-.2-1.15-.435-1.694-.653l-.069 4.131zm.065-10.635v3.796a5.47 5.47 0 0 0 1.441.814 6.22 6.22 0 0 0 2.351.383 4.62 4.62 0 0 0 2.524-.683c.728-.466 1.314-1.122 1.694-1.898.414-.843.622-1.773.609-2.712a7.95 7.95 0 0 0-.435-2.647c-.255-.769-.73-1.445-1.367-1.946a4.02 4.02 0 0 0-2.538-.736 3.97 3.97 0 0 0-2.551.871 4.57 4.57 0 0 0-1.523 2.455 6.95 6.95 0 0 0-.17 1.101c-.018.37-.035.779-.035 1.201zm-9.085 7.513l-.061-2.129a4.84 4.84 0 0 1-2.146 1.611 7.31 7.31 0 0 1-2.743.549c-.809-.002-1.611-.149-2.368-.435-.772-.286-1.446-.787-1.942-1.445a4.25 4.25 0 0 1-.753-2.664 4.68 4.68 0 0 1 1.663-3.761c1.106-.94 2.683-1.41 4.732-1.41l1.428.048 1.332.096.84.091c.001-.588-.123-1.17-.366-1.706a3.22 3.22 0 0 0-.792-1.149 3.27 3.27 0 0 0-1.158-.657 4.36 4.36 0 0 0-1.467-.244 4.62 4.62 0 0 0-.718.057 5.74 5.74 0 0 0-1.032.27l-.675.274c-1.106.435-1.363.435-1.506.435-.249-.024-.487-.119-.683-.274a1.22 1.22 0 0 1-.413-.592 1.22 1.22 0 0 1 .096-.897c.089-.17.214-.318.366-.435.566-.427 1.203-.751 1.881-.958.61-.192 1.239-.317 1.876-.374a7.58 7.58 0 0 1 2.782.174 6.88 6.88 0 0 1 2.816 1.511 4.87 4.87 0 0 1 .753.831 4.93 4.93 0 0 1 .871 3.047l.03 7.318a2.82 2.82 0 0 1-.117.979c-.166.538-.502 1.008-.957 1.34a2.61 2.61 0 0 1-1.568.502zm-.091-5.611v-1.645a3.16 3.16 0 0 0-.723-.109l-1.271-.096-1.362-.048c-.823-.052-1.646.097-2.399.435a2.45 2.45 0 0 0-1.119 1.123 3.24 3.24 0 0 0-.296 1.332c-.019.341.046.682.188.992s.357.583.626.792c.662.453 1.455.673 2.255.627a4.31 4.31 0 0 0 2.015-.47 4.42 4.42 0 0 0 1.502-1.271c.374-.474.58-1.059.588-1.663h-.004zm-59.113-2.255l-5.224 7.222c.289.247.628.428.995.53a2.61 2.61 0 0 0 1.125.062 3.42 3.42 0 0 0 1.384-.871c.258-.239.491-.503.697-.788l2.816-4.001 1.519-2.142-3.313-.013z"/><path d="M41.623 16.913l5.224 7.222c-.289.247-.628.428-.995.53a2.61 2.61 0 0 1-1.125.062 3.39 3.39 0 0 1-1.384-.871 5.33 5.33 0 0 1-.701-.788l-2.817-4.001-1.515-2.142 3.313-.013zm-3.287 0l-5.25-7.226c.222-.178 1.123-.845 2.12-.592a3.36 3.36 0 0 1 1.384.871 5.06 5.06 0 0 1 .697.788l2.816 4.001 1.519 2.142-3.287.017z"/><path d="M41.623 16.913l5.224-7.222c-.222-.178-1.123-.845-2.12-.592-.526.171-1.002.47-1.384.871a5.12 5.12 0 0 0-.701.788l-2.817 4.001L38.31 16.9l3.313.013zm-12.172 3.783c.193-.02.388.006.568.078a1.22 1.22 0 0 1 .686 1.511 1.31 1.31 0 0 1-.209.353 4.79 4.79 0 0 1-1.532 1.114l-.113.056c-.015.002-.029.002-.044 0a7.36 7.36 0 0 1-1.276.466 10.72 10.72 0 0 1-3.152.483 7.88 7.88 0 0 1-3.979-.984 6.93 6.93 0 0 1-2.682-2.76 8.49 8.49 0 0 1-.953-4.092c-.02-1.341.297-2.666.923-3.853a7.11 7.11 0 0 1 2.568-2.743c1.138-.691 2.448-1.044 3.779-1.019a6.49 6.49 0 0 1 4.105 1.249 7.03 7.03 0 0 1 2.29 3.165 11.94 11.94 0 0 1 .718 4.166H19.647a4.4 4.4 0 0 0 .688 2.307 4.22 4.22 0 0 0 .683.81c.276.24.582.443.91.605a6.86 6.86 0 0 0 1.04.435 5.47 5.47 0 0 0 1.262.218 6.09 6.09 0 0 0 1.95-.205 9.25 9.25 0 0 0 2.69-1.158 1.23 1.23 0 0 1 .579-.205zm-9.803-4.915h8.589c-.059-1.068-.48-2.084-1.193-2.882a3.81 3.81 0 0 0-3.008-1.192 4.35 4.35 0 0 0-2.32.592c-.62.368-1.133.892-1.489 1.519a4.57 4.57 0 0 0-.579 1.963zm63.826 4.915a1.21 1.21 0 0 1 1.036.409 1.22 1.22 0 0 1 .218 1.18 1.31 1.31 0 0 1-.209.353 4.79 4.79 0 0 1-1.532 1.114l-.113.057c-.014.002-.029.002-.044 0-.41.194-.837.35-1.276.466a10.72 10.72 0 0 1-3.169.505 7.87 7.87 0 0 1-3.979-.984 6.91 6.91 0 0 1-2.682-2.76 8.49 8.49 0 0 1-.953-4.092c-.02-1.341.297-2.666.923-3.853a7.11 7.11 0 0 1 2.568-2.742c1.138-.691 2.448-1.044 3.779-1.019a6.49 6.49 0 0 1 4.123 1.228 7.03 7.03 0 0 1 2.29 3.165 11.94 11.94 0 0 1 .718 4.166H73.671a4.35 4.35 0 0 0 .688 2.307 4.22 4.22 0 0 0 .683.81c.276.24.582.443.91.605a6.86 6.86 0 0 0 1.041.435 5.47 5.47 0 0 0 1.258.218 6.1 6.1 0 0 0 1.955-.205 9.25 9.25 0 0 0 2.69-1.158 1.23 1.23 0 0 1 .579-.205zm-9.803-4.915h8.589a4.74 4.74 0 0 0-1.193-2.882c-.384-.407-.852-.724-1.372-.931a3.82 3.82 0 0 0-1.636-.262 4.35 4.35 0 0 0-2.32.592c-.62.368-1.133.892-1.489 1.519a4.52 4.52 0 0 0-.579 1.963z"/></g><path d="M21.484 31.797h.031" stroke="#005200" stroke-width=".109" stroke-miterlimit="10"/><g fill="#000"><path d="M49.48 19.847l-.087-11.453v-.152a3.62 3.62 0 0 1 .07-.623c.132-.738.538-1.399 1.136-1.85.468-.328 1.026-.502 1.598-.501l-.039 7.714.118 7.984c.02.188.076.369.165.535.07.118.158.223.261.313a1.49 1.49 0 0 0 .318.205 1.68 1.68 0 0 0 .971.117 2.65 2.65 0 0 0 .435-.126 6.35 6.35 0 0 0 1.358-.631l.405-.257.074-.043a1.33 1.33 0 0 1 .305-.118 1.27 1.27 0 0 1 .557 0c.23.063.438.192.596.37a1.15 1.15 0 0 1 .213 1.18c-.048.157-.209.54-1.136 1.123a7.3 7.3 0 0 1-1.863.853 5.78 5.78 0 0 1-1.432.27c-.322 0-1.868.057-2.925-1.01-.949-.958-1.027-2.338-1.084-3.369l-.013-.531z"/><path d="M51.295 11.602l2.068-.074c.757.003 1.487-.282 2.042-.797a2.46 2.46 0 0 0 .723-1.672h-4.789l-.044 2.542zm9.578 8.245l-.087-11.453v-.152a2.91 2.91 0 0 1 .07-.623c.13-.739.537-1.4 1.136-1.85.466-.329 1.023-.505 1.593-.505l-.039 7.714.118 7.984a1.46 1.46 0 0 0 .165.535 1.29 1.29 0 0 0 .257.313 1.54 1.54 0 0 0 .322.205 1.66 1.66 0 0 0 .966.118 2.54 2.54 0 0 0 .435-.126c.477-.157.934-.369 1.363-.631.109-.078.209-.135.401-.257l.078-.044a1.14 1.14 0 0 1 .871-.105c.231.062.438.191.596.37a1.16 1.16 0 0 1 .257.488 1.2 1.2 0 0 1-.039.692c-.052.157-.209.54-1.136 1.123a7.4 7.4 0 0 1-1.876.845 5.71 5.71 0 0 1-1.428.27c-.326 0-1.872.056-2.925-1.01-.953-.958-1.027-2.338-1.088-3.369l-.009-.531zM4.041 23.952c-.148.295-.39.533-.688.675-.211.106-.447.154-.683.14s-.464-.09-.661-.22-.357-.31-.462-.522-.154-.447-.139-.683c-.096-5.507-.03-9.551.057-10.726a4.6 4.6 0 0 1 .549-1.894 2.53 2.53 0 0 1 .936-1.039c.403-.251.869-.385 1.345-.384l-.078 2.338c.113-.227.247-.442.401-.644.609-.754 1.418-1.32 2.334-1.634s1.903-.363 2.846-.142a5.57 5.57 0 0 1 2.695 1.306c.383.338.712.733.975 1.171.644 1.093.675 2.177.723 3.966v1.602c.035 1.437.044 2.912 0 4.427 0 .871-.043 1.667-.605 2.242a2.61 2.61 0 0 1-1.441.731 2.31 2.31 0 0 1-.614 0c.074-5.18.039-9.002-.039-10.012a3.55 3.55 0 0 0-1.014-2.399 3.94 3.94 0 0 0-2.612-1.067c-.52.018-1.031.144-1.501.368a3.76 3.76 0 0 0-1.228.938 3.36 3.36 0 0 0-.618.992 3.49 3.49 0 0 0-.244 1.241l-.083 8.628a1.41 1.41 0 0 1-.148.601z"/></g></svg>