<svg width="20" height="21" viewBox="0 0 20 21" fill="none" xmlns="http://www.w3.org/2000/svg">
<path d="M10.0007 5.49967V7.99967L13.334 4.66634L10.0007 1.33301V3.83301C6.31732 3.83301 3.33398 6.81634 3.33398 10.4997C3.33398 11.808 3.71732 13.0247 4.36732 14.0497L5.58398 12.833C5.20898 12.1413 5.00065 11.3413 5.00065 10.4997C5.00065 7.74134 7.24232 5.49967 10.0007 5.49967ZM15.634 6.94967L14.4173 8.16634C14.784 8.86634 15.0007 9.65801 15.0007 10.4997C15.0007 13.258 12.759 15.4997 10.0007 15.4997V12.9997L6.66732 16.333L10.0007 19.6663V17.1663C13.684 17.1663 16.6673 14.183 16.6673 10.4997C16.6673 9.19134 16.284 7.97467 15.634 6.94967Z" fill="black"/>
</svg>
