<svg width="20" height="20" viewBox="0 0 20 20" fill="none" xmlns="http://www.w3.org/2000/svg">
<path d="M10.1 20C8.7 20 7.38733 19.7333 6.162 19.2C4.93733 18.6667 3.871 17.946 2.963 17.038C2.05433 16.1293 1.33333 15.0623 0.8 13.837C0.266667 12.6123 0 11.3 0 9.9C0 7.46667 0.775 5.32067 2.325 3.462C3.875 1.604 5.85 0.45 8.25 0C7.95 1.65 8.04167 3.26233 8.525 4.837C9.00833 6.41233 9.84167 7.79167 11.025 8.975C12.2083 10.1583 13.5877 10.9917 15.163 11.475C16.7377 11.9583 18.35 12.05 20 11.75C19.5667 14.15 18.4167 16.125 16.55 17.675C14.6833 19.225 12.5333 20 10.1 20ZM10.1 18C11.5667 18 12.925 17.6333 14.175 16.9C15.425 16.1667 16.4083 15.1583 17.125 13.875C15.6917 13.7417 14.3333 13.3793 13.05 12.788C11.7667 12.196 10.6167 11.3917 9.6 10.375C8.58333 9.35833 7.775 8.20833 7.175 6.925C6.575 5.64167 6.21667 4.28333 6.1 2.85C4.81667 3.56667 3.81267 4.554 3.088 5.812C2.36267 7.07067 2 8.43333 2 9.9C2 12.15 2.78767 14.0623 4.363 15.637C5.93767 17.2123 7.85 18 10.1 18Z" fill="#1C1B1F"/>
</svg>
