<svg xmlns="http://www.w3.org/2000/svg" width="18" height="18" fill="none" xmlns:v="https://vecta.io/nano"><path d="M16.313 4.73c-.547.237-1.098.412-1.706.469.608-.351 1.098-.943 1.338-1.587-.608.351-1.216.588-1.885.706-.612-.588-1.404-.943-2.257-.943-1.645 0-2.987 1.298-2.987 2.889 0 .233 0 .469.061.649-3.142 0-5.297-1.771-6.758-3.538-.306.412-.428.943-.428 1.473 0 1 .551 1.885 1.343 2.416-.49-.057-.975-.175-1.343-.351v.057c0 1.416 1.036 2.591 2.379 2.828-.245.057-.49.118-.796.118-.18 0-.363 0-.547-.057.367 1.179 2.069 2.534 3.407 2.534-1.036.763-2 1.428-3.926 1.428h-.522c1.338.824 2.926 1.045 4.57 1.045 5.546 0 8.533-4.419 8.533-8.251v-.351c.608-.416 1.098-.943 1.522-1.534z" fill="#fff"/></svg>