<svg xmlns="http://www.w3.org/2000/svg" width="18" height="18" fill="none" xmlns:v="https://vecta.io/nano"><path d="M16.186 4.64a1.88 1.88 0 0 0-1.326-1.326C13.691 3 9 3 9 3s-4.69 0-5.86.313A1.88 1.88 0 0 0 1.814 4.64C1.5 5.81 1.5 9 1.5 9s0 3.191.313 4.361a1.88 1.88 0 0 0 1.326 1.326C4.31 15 9 15 9 15s4.691 0 5.861-.313a1.88 1.88 0 0 0 1.326-1.326C16.5 12.191 16.5 9 16.5 9s0-3.19-.314-4.36zM7.5 10.949V7.052c0-.289.313-.469.563-.325l3.375 1.949c.25.144.25.505 0 .649l-3.375 1.949c-.25.145-.562-.036-.562-.325z" fill="#fff"/></svg>